<mxfile host="app.diagrams.net" modified="2023-10-20T02:35:41.454Z" agent="Mozilla/5.0 (Windows NT 10.0; Win64; x64) AppleWebKit/537.36 (KHTML, like Gecko) Chrome/118.0.0.0 Safari/537.36" version="21.8.2" etag="I1vY82QK4_-M7ijGh7ir" type="github">
  <diagram name="Trang-1" id="ZTtjvVGYbcyeNN4Edi4J">
    <mxGraphModel>
      <root>
        <mxCell id="0" />
        <mxCell id="1" parent="0" />
      </root>
    </mxGraphModel>
  </diagram>
</mxfile>
